<svg width="22" height="22" viewBox="0 0 22 22" fill="none" xmlns="http://www.w3.org/2000/svg">
<path d="M20 11C20 6.02944 15.9706 2 11 2C6.02944 2 2 6.02944 2 11C2 15.9706 6.02944 20 11 20V22C4.92487 22 0 17.0751 0 11C0 4.92487 4.92487 0 11 0C17.0751 0 22 4.92487 22 11C22 17.0751 17.0751 22 11 22V20C15.9706 20 20 15.9706 20 11Z" fill="black"/>
<path d="M11.207 7.14744C10.547 7.14744 10.0405 6.62558 10.0405 5.96558C10.0405 5.30558 10.547 4.79907 11.207 4.79907C11.8824 4.79907 12.3736 5.30558 12.3736 5.96558C12.3736 6.62558 11.8824 7.14744 11.207 7.14744ZM12.1126 16.3721H10.3015V8.23721H12.1126V16.3721Z" fill="black"/>
</svg>
